<?xml version="1.0" encoding="UTF-8" standalone="no" ?>
<!DOCTYPE svg PUBLIC "-//W3C//DTD SVG 1.1//EN" "http://www.w3.org/Graphics/SVG/1.1/DTD/svg11.dtd">
<svg xmlns="http://www.w3.org/2000/svg" xmlns:xlink="http://www.w3.org/1999/xlink" version="1.1" width="526.01875" height="182.89" xml:space="preserve">
<desc>Created with Fabric.js 1.6.0-rc.1</desc>
<defs></defs>
<g style="stroke: none; stroke-width: 1; stroke-dasharray: none; stroke-linecap: butt; stroke-linejoin: miter; stroke-miterlimit: 10; fill: none; fill-rule: nonzero; opacity: 1;" transform="translate(10 10.009999999999991) scale(0.32 0.32)" >
  <circle cx="254" cy="254" r="254" style="stroke: none; stroke-width: 1; stroke-dasharray: none; stroke-linecap: butt; stroke-linejoin: miter; stroke-miterlimit: 10; fill: #90DFAA; fill-rule: nonzero; opacity: 1;" transform="  matrix(1 0 0 1 0 0) "/>
  <path d="M 419.2 320 c -6.4 -4.8 -10 -12.8 -10 -21.6 V 284 l -24.8 -101.2 c -1.2 -4.4 -5.2 -6.8 -9.6 -6 c -0.8 0 -1.6 0.4 -2.4 0.8 H 135.2 c -0.8 -0.4 -1.6 -0.8 -2.4 -0.8 c -4.4 -1.2 -8.4 1.6 -9.6 6 L 98.4 284 v 14.4 c 0 8.8 -3.6 16.8 -10 21.6 c -8.8 6.8 -13.2 18 -10.8 29.6 c 2.4 11.2 11.2 20 22.4 22.4 c 2 0.4 4 0.8 6 0.8 c 6.8 0 13.2 -2.4 18.4 -6.4 c 6.8 -5.6 10.8 -14 10.8 -22.8 c 0 -4.4 -3.6 -8 -8 -8 c -4.4 0 -8 3.6 -8 8 c 0 4 -2 8 -4.8 10.4 c -3.2 2.8 -7.2 3.6 -11.6 2.8 c -5.2 -1.2 -9.2 -5.2 -10 -10 c -1.2 -5.2 0.8 -10.4 4.8 -13.6 c 10 -7.6 16 -20.4 16 -34.4 V 286 l 21.6 -88.8 h 235.2 l 22.8 88.8 v 12.4 c 0 13.6 6 26.4 16 34.4 c 4 3.2 6 8.4 4.8 13.6 s -5.2 9.2 -10 10 c -4 0.8 -8.4 0 -11.6 -2.8 c -3.2 -2.4 -4.8 -6.4 -4.8 -10.4 c 0 -4.4 -3.6 -8 -8 -8 s -8 3.6 -8 8 c 0 8.8 4 17.2 10.8 22.8 c 5.2 4.4 11.6 6.4 18.4 6.4 c 2 0 4 -0.4 6 -0.8 c 11.2 -2.4 20 -11.2 22.4 -22.4 C 432 338.4 428 327.2 419.2 320 z" style="stroke: none; stroke-width: 1; stroke-dasharray: none; stroke-linecap: butt; stroke-linejoin: miter; stroke-miterlimit: 10; fill: #2B3B4E; fill-rule: nonzero; opacity: 1;" transform=" matrix(1 0 0 1 0 0) " stroke-linecap="round" />
  <rect x="274" y="271.2" rx="0" ry="0" width="27.2" height="164" style="stroke: none; stroke-width: 1; stroke-dasharray: none; stroke-linecap: butt; stroke-linejoin: miter; stroke-miterlimit: 10; fill: #2B3B4E; fill-rule: nonzero; opacity: 1;" transform=" matrix(1 0 0 1 0 0) "/>
  <circle cx="287.6" cy="335.20000000000005" r="25.6" style="stroke: none; stroke-width: 1; stroke-dasharray: none; stroke-linecap: butt; stroke-linejoin: miter; stroke-miterlimit: 10; fill: #324A5E; fill-rule: nonzero; opacity: 1;" transform="  matrix(1 0 0 1 0 0) "/>
  <circle cx="287.6" cy="335.20000000000005" r="13.6" style="stroke: none; stroke-width: 1; stroke-dasharray: none; stroke-linecap: butt; stroke-linejoin: miter; stroke-miterlimit: 10; fill: #2B3B4E; fill-rule: nonzero; opacity: 1;" transform="  matrix(1 0 0 1 0 0) "/>
  <rect x="201.2" y="271.2" rx="0" ry="0" width="27.2" height="164" style="stroke: none; stroke-width: 1; stroke-dasharray: none; stroke-linecap: butt; stroke-linejoin: miter; stroke-miterlimit: 10; fill: #2B3B4E; fill-rule: nonzero; opacity: 1;" transform=" matrix(1 0 0 1 0 0) "/>
  <circle cx="214.79999999999998" cy="335.20000000000005" r="25.6" style="stroke: none; stroke-width: 1; stroke-dasharray: none; stroke-linecap: butt; stroke-linejoin: miter; stroke-miterlimit: 10; fill: #324A5E; fill-rule: nonzero; opacity: 1;" transform="  matrix(1 0 0 1 0 0) "/>
  <circle cx="214.79999999999998" cy="335.20000000000005" r="13.6" style="stroke: none; stroke-width: 1; stroke-dasharray: none; stroke-linecap: butt; stroke-linejoin: miter; stroke-miterlimit: 10; fill: #2B3B4E; fill-rule: nonzero; opacity: 1;" transform="  matrix(1 0 0 1 0 0) "/>
  <path d="M 85.2 443.6 c 44.8 40 104 64.4 168.8 64.4 s 124 -24.4 168.8 -64.4 H 85.2 z" style="stroke: none; stroke-width: 1; stroke-dasharray: none; stroke-linecap: butt; stroke-linejoin: miter; stroke-miterlimit: 10; fill: #2C9984; fill-rule: nonzero; opacity: 1;" transform=" matrix(1 0 0 1 0 0) " stroke-linecap="round" />
  <path d="M 269.2 443.6 h 88 c 0 -18.8 -15.2 -34 -34 -34 h -54 V 443.6 z" style="stroke: none; stroke-width: 1; stroke-dasharray: none; stroke-linecap: butt; stroke-linejoin: miter; stroke-miterlimit: 10; fill: #324A5E; fill-rule: nonzero; opacity: 1;" transform=" matrix(1 0 0 1 0 0) " stroke-linecap="round" />
  <path d="M 238.8 443.6 h -88 c 0 -18.8 15.2 -34 34 -34 h 54 V 443.6 z" style="stroke: none; stroke-width: 1; stroke-dasharray: none; stroke-linecap: butt; stroke-linejoin: miter; stroke-miterlimit: 10; fill: #324A5E; fill-rule: nonzero; opacity: 1;" transform=" matrix(1 0 0 1 0 0) " stroke-linecap="round" />
  <path d="M 308 138.4 H 200 c -4 0 -7.2 -3.2 -7.2 -7.2 V 72.8 c 0 -4 3.2 -7.2 7.2 -7.2 h 108.4 c 4 0 7.2 3.2 7.2 7.2 v 58.4 C 315.2 135.2 312 138.4 308 138.4 z" style="stroke: none; stroke-width: 1; stroke-dasharray: none; stroke-linecap: butt; stroke-linejoin: miter; stroke-miterlimit: 10; fill: #324A5E; fill-rule: nonzero; opacity: 1;" transform=" matrix(1 0 0 1 0 0) " stroke-linecap="round" />
  <circle cx="288.8" cy="88" r="15.2" style="stroke: none; stroke-width: 1; stroke-dasharray: none; stroke-linecap: butt; stroke-linejoin: miter; stroke-miterlimit: 10; fill: #FFFFFF; fill-rule: nonzero; opacity: 1;" transform="  matrix(1 0 0 1 0 0) "/>
  <circle cx="288.79999999999995" cy="88" r="8.4" style="stroke: none; stroke-width: 1; stroke-dasharray: none; stroke-linecap: butt; stroke-linejoin: miter; stroke-miterlimit: 10; fill: #FF7058; fill-rule: nonzero; opacity: 1;" transform="  matrix(1 0 0 1 0 0) "/>
  <circle cx="219.2" cy="88" r="15.2" style="stroke: none; stroke-width: 1; stroke-dasharray: none; stroke-linecap: butt; stroke-linejoin: miter; stroke-miterlimit: 10; fill: #FFFFFF; fill-rule: nonzero; opacity: 1;" transform="  matrix(1 0 0 1 0 0) "/>
  <circle cx="219.20000000000002" cy="88" r="8.4" style="stroke: none; stroke-width: 1; stroke-dasharray: none; stroke-linecap: butt; stroke-linejoin: miter; stroke-miterlimit: 10; fill: #FF7058; fill-rule: nonzero; opacity: 1;" transform="  matrix(1 0 0 1 0 0) "/>
  <rect x="240" y="138.4" rx="0" ry="0" width="28" height="20" style="stroke: none; stroke-width: 1; stroke-dasharray: none; stroke-linecap: butt; stroke-linejoin: miter; stroke-miterlimit: 10; fill: #2B3B4E; fill-rule: nonzero; opacity: 1;" transform=" matrix(1 0 0 1 0 0) "/>
  <path d="M 320 158.8 H 188 c -6.4 0 -12 5.2 -12 12 V 272 c 0 6.4 5.2 12 12 12 h 132 c 6.4 0 12 -5.2 12 -12 V 170.8 C 332 164 326.4 158.8 320 158.8 z" style="stroke: none; stroke-width: 1; stroke-dasharray: none; stroke-linecap: butt; stroke-linejoin: miter; stroke-miterlimit: 10; fill: #324A5E; fill-rule: nonzero; opacity: 1;" transform=" matrix(1 0 0 1 0 0) " stroke-linecap="round" />
  <rect x="223.6" y="111.2" rx="0" ry="0" width="14.8" height="14.8" style="stroke: none; stroke-width: 1; stroke-dasharray: none; stroke-linecap: butt; stroke-linejoin: miter; stroke-miterlimit: 10; fill: #2B3B4E; fill-rule: nonzero; opacity: 1;" transform=" matrix(1 0 0 1 0 0) "/>
  <rect x="246.4" y="111.2" rx="0" ry="0" width="14.8" height="14.8" style="stroke: none; stroke-width: 1; stroke-dasharray: none; stroke-linecap: butt; stroke-linejoin: miter; stroke-miterlimit: 10; fill: #2B3B4E; fill-rule: nonzero; opacity: 1;" transform=" matrix(1 0 0 1 0 0) "/>
  <rect x="269.6" y="111.2" rx="0" ry="0" width="14.8" height="14.8" style="stroke: none; stroke-width: 1; stroke-dasharray: none; stroke-linecap: butt; stroke-linejoin: miter; stroke-miterlimit: 10; fill: #2B3B4E; fill-rule: nonzero; opacity: 1;" transform=" matrix(1 0 0 1 0 0) "/>
  <path d="M 315.2 124.8 h 11.2 c 2.8 0 5.6 -2.4 5.6 -5.6 V 84.8 c 0 -2.8 -2.4 -5.6 -5.6 -5.6 h -11.2 V 124.8 z" style="stroke: none; stroke-width: 1; stroke-dasharray: none; stroke-linecap: butt; stroke-linejoin: miter; stroke-miterlimit: 10; fill: #2B3B4E; fill-rule: nonzero; opacity: 1;" transform=" matrix(1 0 0 1 0 0) " stroke-linecap="round" />
  <path d="M 192.8 124.8 h -11.2 c -2.8 0 -5.6 -2.4 -5.6 -5.6 V 84.8 c 0 -2.8 2.4 -5.6 5.6 -5.6 h 11.2 V 124.8 z" style="stroke: none; stroke-width: 1; stroke-dasharray: none; stroke-linecap: butt; stroke-linejoin: miter; stroke-miterlimit: 10; fill: #2B3B4E; fill-rule: nonzero; opacity: 1;" transform=" matrix(1 0 0 1 0 0) " stroke-linecap="round" />
  <circle cx="376.79999999999995" cy="184.8" r="24.4" style="stroke: none; stroke-width: 1; stroke-dasharray: none; stroke-linecap: butt; stroke-linejoin: miter; stroke-miterlimit: 10; fill: #2B3B4E; fill-rule: nonzero; opacity: 1;" transform="  matrix(1 0 0 1 0 0) "/>
  <circle cx="376.8" cy="184.8" r="12.8" style="stroke: none; stroke-width: 1; stroke-dasharray: none; stroke-linecap: butt; stroke-linejoin: miter; stroke-miterlimit: 10; fill: #324A5E; fill-rule: nonzero; opacity: 1;" transform="  matrix(1 0 0 1 0 0) "/>
  <circle cx="401.2" cy="285.2" r="16.8" style="stroke: none; stroke-width: 1; stroke-dasharray: none; stroke-linecap: butt; stroke-linejoin: miter; stroke-miterlimit: 10; fill: #2B3B4E; fill-rule: nonzero; opacity: 1;" transform="  matrix(1 0 0 1 0 0) "/>
  <circle cx="401.2" cy="285.2" r="8.8" style="stroke: none; stroke-width: 1; stroke-dasharray: none; stroke-linecap: butt; stroke-linejoin: miter; stroke-miterlimit: 10; fill: #324A5E; fill-rule: nonzero; opacity: 1;" transform="  matrix(1 0 0 1 0 0) "/>
  <circle cx="131.2" cy="184.8" r="24.4" style="stroke: none; stroke-width: 1; stroke-dasharray: none; stroke-linecap: butt; stroke-linejoin: miter; stroke-miterlimit: 10; fill: #2B3B4E; fill-rule: nonzero; opacity: 1;" transform="  matrix(1 0 0 1 0 0) "/>
  <circle cx="131.20000000000002" cy="184.8" r="12.8" style="stroke: none; stroke-width: 1; stroke-dasharray: none; stroke-linecap: butt; stroke-linejoin: miter; stroke-miterlimit: 10; fill: #324A5E; fill-rule: nonzero; opacity: 1;" transform="  matrix(1 0 0 1 0 0) "/>
  <circle cx="106.8" cy="285.2" r="16.8" style="stroke: none; stroke-width: 1; stroke-dasharray: none; stroke-linecap: butt; stroke-linejoin: miter; stroke-miterlimit: 10; fill: #2B3B4E; fill-rule: nonzero; opacity: 1;" transform="  matrix(1 0 0 1 0 0) "/>
  <circle cx="106.8" cy="285.2" r="8.8" style="stroke: none; stroke-width: 1; stroke-dasharray: none; stroke-linecap: butt; stroke-linejoin: miter; stroke-miterlimit: 10; fill: #324A5E; fill-rule: nonzero; opacity: 1;" transform="  matrix(1 0 0 1 0 0) "/>
</g>
  <g transform="translate(239.15 42.6) scale(1.22 1.22)">
   <text font-family="Masque" font-size="40" font-weight="normal" style="stroke: none; stroke-width: 1; stroke-dasharray: none; stroke-linecap: butt; stroke-linejoin: miter; stroke-miterlimit: 10; fill: #0e3db3; fill-rule: nonzero; opacity: 1;" ><tspan x="-62.62" y="8.98" style="stroke: none; stroke-width: 0; stroke-dasharray: none; stroke-linecap: butt; stroke-linejoin: miter; stroke-miterlimit: 4; fill: #0e3db3; fill-rule: ; opacity: 1;">R</tspan><tspan x="-31.98" y="8.98" style="stroke: none; stroke-width: 0; stroke-dasharray: none; stroke-linecap: butt; stroke-linejoin: miter; stroke-miterlimit: 4; fill: #0e3db3; fill-rule: ; opacity: 1;">O</tspan><tspan x="-1.34" y="8.98" style="stroke: none; stroke-width: 0; stroke-dasharray: none; stroke-linecap: butt; stroke-linejoin: miter; stroke-miterlimit: 4; fill: #0e3db3; fill-rule: ; opacity: 1;">B</tspan><tspan x="31.98" y="8.98" style="stroke: none; stroke-width: 0; stroke-dasharray: none; stroke-linecap: butt; stroke-linejoin: miter; stroke-miterlimit: 4; fill: #0e3db3; fill-rule: ; opacity: 1;">O</tspan></text>
 </g>
  <g transform="translate(171.57 91.41) scale(0.55 0.6)">
   <text font-family="ADAMCG PRO" font-size="40" font-weight="normal" style="stroke: none; stroke-width: 1; stroke-dasharray: none; stroke-linecap: butt; stroke-linejoin: miter; stroke-miterlimit: 10; fill: #000000; fill-rule: nonzero; opacity: 1;" ><tspan x="0" y="8.98" fill="#000000"></tspan></text>
 </g>
  <g transform="translate(174.5 80.73)">
   <text font-family="ADAMCG PRO" font-size="40" font-weight="normal" style="stroke: none; stroke-width: 1; stroke-dasharray: none; stroke-linecap: butt; stroke-linejoin: miter; stroke-miterlimit: 10; fill: #000000; fill-rule: nonzero; opacity: 1;" ><tspan x="0" y="8.98" fill="#000000"></tspan></text>
 </g>
<g style="stroke: none; stroke-width: 1; stroke-dasharray: none; stroke-linecap: butt; stroke-linejoin: miter; stroke-miterlimit: 10; fill: none; fill-rule: nonzero; opacity: 1;" transform="translate(197 59.38) scale(0.73 0.73)" >
  <path d="M 3.11 2.073 l 0.186 0.157 l 0.186 0.156 l -0.156 0.229 l -0.059 0.085 c 0.124 0.146 0.222 0.315 0.287 0.499 l 0.065 -0.004 l 0.277 -0.017 l 0.042 0.24 l 0.042 0.24 l -0.267 0.074 l -0.066 0.018 a 1.606 1.606 0 0 1 -0.116 0.59 l 0.034 0.025 l 0.223 0.165 l -0.122 0.21 l -0.122 0.211 l -0.252 -0.114 l -0.054 -0.025 c -0.134 0.15 -0.296 0.276 -0.478 0.367 l 0.012 0.047 l 0.064 0.27 l -0.228 0.083 l -0.23 0.083 l -0.119 -0.25 l -0.034 -0.072 a 1.625 1.625 0 0 1 -0.579 -0.036 l -0.036 0.072 l -0.124 0.248 l -0.228 -0.083 l -0.229 -0.083 l 0.07 -0.269 l 0.03 -0.117 a 1.622 1.622 0 0 1 -0.392 -0.377 l -0.113 0.05 l -0.254 0.11 a 479.277 479.277 0 0 0 -0.243 -0.422 l 0.225 -0.16 l 0.132 -0.095 a 1.612 1.612 0 0 1 -0.06 -0.507 l -0.149 -0.044 l -0.266 -0.08 l 0.042 -0.239 l 0.043 -0.24 l 0.276 0.022 l 0.183 0.014 c 0.066 -0.154 0.156 -0.295 0.264 -0.42 l -0.091 -0.138 l -0.153 -0.231 l 0.186 -0.157 l 0.187 -0.156 l 0.197 0.194 l 0.127 0.124 c 0.147 -0.08 0.309 -0.137 0.48 -0.168 l 0.016 -0.144 l 0.031 -0.276 h 0.487 l 0.027 0.276 l 0.014 0.145 c 0.181 0.033 0.352 0.096 0.506 0.184 l 0.077 -0.073 l 0.202 -0.19 z m -1.075 0.654 a 1.012 1.012 0 1 1 0 2.025 a 1.012 1.012 0 0 1 0 -2.025 z" style="stroke: #1f1a17; stroke-width: 0.02; stroke-dasharray: none; stroke-linecap: butt; stroke-linejoin: miter; stroke-miterlimit: 10; fill: rgb(0,0,0); fill-rule: evenodd; opacity: 1;" transform=" matrix(18.023057246310064 0 0 18.023057246310064 0 0) " stroke-linecap="round" />
  <path d="M 3.245 2.29 l -0.132 -0.11 l -0.15 0.142 l -0.077 0.073 l -0.043 0.04 l -0.05 -0.029 a 1.524 1.524 0 0 0 -0.481 -0.175 H 2.31 l -0.059 -0.01 l -0.006 -0.06 l -0.014 -0.146 l -0.016 -0.165 l -0.004 -0.038 h -0.344 l -0.024 0.205 l -0.016 0.144 l -0.007 0.059 l -0.058 0.01 a 1.52 1.52 0 0 0 -0.454 0.16 l -0.052 0.028 l -0.042 -0.042 l -0.127 -0.124 l -0.128 -0.126 l -0.018 -0.018 l -0.132 0.11 l -0.132 0.112 l 0.114 0.172 l 0.09 0.138 l 0.034 0.05 l -0.04 0.045 a 1.536 1.536 0 0 0 -0.25 0.4 l -0.023 0.053 l -0.056 -0.005 l -0.183 -0.014 l -0.19 -0.015 l -0.015 -0.001 l -0.03 0.169 l -0.03 0.17 l 0.198 0.059 l 0.15 0.044 l 0.059 0.018 l -0.003 0.061 v 0.065 a 1.54 1.54 0 0 0 0.056 0.417 v 0.002 l 0.015 0.053 l -0.045 0.032 l -0.131 0.094 l -0.137 0.097 l -0.03 0.022 l 0.086 0.149 l 0.086 0.15 l 0.19 -0.083 l 0.113 -0.05 l 0.057 -0.024 l 0.038 0.05 a 1.544 1.544 0 0 0 0.371 0.359 l 0.047 0.03 l -0.014 0.055 l -0.03 0.117 l -0.044 0.168 l -0.008 0.03 l 0.162 0.06 l 0.162 0.059 l 0.093 -0.185 l 0.035 -0.072 l 0.028 -0.057 l 0.062 0.015 a 1.528 1.528 0 0 0 0.369 0.046 h 0.001 c 0.044 0 0.087 -0.002 0.13 -0.006 l 0.024 -0.002 l 0.025 -0.003 h 0.002 l 0.056 -0.007 l 0.025 0.051 l 0.034 0.072 l 0.076 0.16 l 0.012 0.025 l 0.162 -0.058 l 0.162 -0.06 l -0.048 -0.2 l -0.011 -0.047 l -0.015 -0.061 l 0.056 -0.028 a 1.537 1.537 0 0 0 0.454 -0.35 l 0.04 -0.043 l 0.052 0.024 l 0.054 0.025 l 0.17 0.077 l 0.017 0.007 l 0.086 -0.148 l 0.086 -0.15 l -0.166 -0.123 l -0.034 -0.025 l -0.049 -0.036 l 0.023 -0.056 a 1.52 1.52 0 0 0 0.11 -0.54 v -0.022 l 0.001 -0.06 l 0.057 -0.015 l 0.066 -0.019 l 0.189 -0.052 l 0.009 -0.002 l -0.03 -0.17 l -0.03 -0.17 l -0.207 0.013 l -0.064 0.004 l -0.06 0.003 l -0.02 -0.056 a 1.527 1.527 0 0 0 -0.272 -0.474 l -0.04 -0.046 l 0.035 -0.05 l 0.058 -0.085 l 0.103 -0.15 l 0.014 -0.02 l -0.132 -0.11 z m -1.21 0.358 a 1.088 1.088 0 0 1 1.09 1.09 l 0.001 0.001 a 1.088 1.088 0 0 1 -1.09 1.09 v 0.002 h -0.001 A 1.088 1.088 0 0 1 0.945 3.74 H 0.943 a 1.088 1.088 0 0 1 1.09 -1.091 h 0.001 z" style="stroke: none; stroke-width: 1; stroke-dasharray: none; stroke-linecap: butt; stroke-linejoin: miter; stroke-miterlimit: 10; fill: #ff8c00; fill-rule: evenodd; opacity: 1;" transform=" matrix(18.023057246310064 0 0 18.023057246310064 0 0) " stroke-linecap="round" />
  <path d="M 6.322 0.349 l 0.186 0.156 l 0.187 0.157 l -0.157 0.228 l -0.059 0.085 c 0.124 0.147 0.222 0.315 0.288 0.5 l 0.064 -0.005 l 0.277 -0.016 l 0.042 0.24 l 0.042 0.24 l -0.266 0.073 l -0.067 0.018 a 1.606 1.606 0 0 1 -0.115 0.59 l 0.033 0.025 l 0.223 0.165 l -0.122 0.211 l -0.121 0.21 l -0.252 -0.114 l -0.054 -0.024 c -0.135 0.15 -0.297 0.275 -0.478 0.367 l 0.01 0.046 l 0.065 0.27 l -0.228 0.083 l -0.229 0.084 l -0.12 -0.25 l -0.034 -0.072 a 1.624 1.624 0 0 1 -0.579 -0.036 l -0.035 0.071 l -0.124 0.249 l -0.229 -0.084 l -0.229 -0.083 l 0.07 -0.268 l 0.03 -0.117 a 1.622 1.622 0 0 1 -0.392 -0.377 l -0.112 0.049 l -0.255 0.11 l -0.121 -0.21 l -0.122 -0.211 l 0.225 -0.161 l 0.132 -0.094 a 1.612 1.612 0 0 1 -0.06 -0.507 l -0.149 -0.045 l -0.266 -0.079 l 0.043 -0.24 l 0.042 -0.239 l 0.276 0.022 l 0.183 0.014 c 0.066 -0.154 0.156 -0.296 0.264 -0.42 L 3.94 0.821 L 3.784 0.59 l 0.187 -0.156 l 0.186 -0.157 l 0.198 0.194 l 0.126 0.125 a 1.6 1.6 0 0 1 0.48 -0.168 l 0.016 -0.144 l 0.032 -0.276 h 0.486 l 0.027 0.276 l 0.014 0.145 a 1.6 1.6 0 0 1 0.507 0.184 L 6.12 0.54 l 0.2 -0.191 z m -1.075 0.654 a 1.012 1.012 0 1 1 0 2.024 a 1.012 1.012 0 0 1 0 -2.024 z" style="stroke: #1f1a17; stroke-width: 0.02; stroke-dasharray: none; stroke-linecap: butt; stroke-linejoin: miter; stroke-miterlimit: 10; fill: rgb(0,0,0); fill-rule: evenodd; opacity: 1;" transform=" matrix(18.023057246310064 0 0 18.023057246310064 0 0) " stroke-linecap="round" />
  <path d="M 6.457 0.566 L 6.325 0.455 l -0.15 0.142 l -0.077 0.073 l -0.043 0.04 l -0.05 -0.028 a 1.524 1.524 0 0 0 -0.481 -0.175 l -0.06 -0.011 l -0.005 -0.06 l -0.015 -0.145 l -0.016 -0.166 l -0.003 -0.038 H 5.08 l -0.023 0.206 l -0.017 0.144 l -0.006 0.058 l -0.058 0.01 a 1.52 1.52 0 0 0 -0.455 0.16 l -0.052 0.028 l -0.042 -0.041 L 4.3 0.528 L 4.172 0.402 L 4.154 0.384 l -0.132 0.11 l -0.132 0.111 l 0.114 0.173 l 0.091 0.138 l 0.033 0.05 l -0.04 0.045 a 1.536 1.536 0 0 0 -0.25 0.4 l -0.022 0.052 l -0.057 -0.004 l -0.183 -0.015 l -0.19 -0.014 l -0.015 -0.002 l -0.03 0.17 l -0.03 0.17 l 0.199 0.058 l 0.15 0.045 l 0.058 0.017 l -0.002 0.062 a 2.05 2.05 0 0 0 -0.002 0.065 a 1.54 1.54 0 0 0 0.058 0.417 v 0.001 l 0.015 0.053 l -0.045 0.032 l -0.132 0.094 l -0.137 0.098 l -0.03 0.021 l 0.086 0.15 l 0.086 0.149 l 0.19 -0.082 l 0.113 -0.05 l 0.058 -0.025 l 0.037 0.051 a 1.545 1.545 0 0 0 0.371 0.358 l 0.047 0.031 l -0.014 0.055 l -0.03 0.117 l -0.043 0.168 l -0.008 0.03 l 0.161 0.06 l 0.162 0.058 l 0.093 -0.185 l 0.036 -0.072 l 0.028 -0.056 l 0.061 0.015 a 1.528 1.528 0 0 0 0.37 0.045 c 0.044 0 0.087 -0.002 0.13 -0.005 L 5.4 3.54 l 0.025 -0.002 h 0.003 l 0.056 -0.007 l 0.024 0.05 l 0.034 0.073 l 0.076 0.16 l 0.012 0.025 l 0.162 -0.059 l 0.162 -0.059 l -0.048 -0.201 l -0.011 -0.047 l -0.015 -0.06 l 0.056 -0.029 a 1.536 1.536 0 0 0 0.454 -0.349 l 0.04 -0.043 l 0.053 0.024 l 0.053 0.024 l 0.17 0.078 l 0.017 0.007 l 0.086 -0.149 l 0.086 -0.15 l -0.166 -0.122 l -0.033 -0.025 l -0.05 -0.036 l 0.023 -0.057 a 1.525 1.525 0 0 0 0.11 -0.54 v -0.021 l 0.001 -0.06 l 0.057 -0.016 l 0.067 -0.018 l 0.188 -0.052 l 0.009 -0.003 l -0.03 -0.17 l -0.03 -0.17 v 0.001 l -0.206 0.012 l -0.065 0.004 l -0.059 0.004 l -0.02 -0.056 a 1.528 1.528 0 0 0 -0.273 -0.474 L 6.38 0.98 l 0.034 -0.05 l 0.059 -0.084 l 0.103 -0.15 l 0.013 -0.02 l -0.132 -0.11 z m -1.21 0.358 a 1.088 1.088 0 0 1 1.09 1.09 h 0.002 v 0.001 a 1.088 1.088 0 0 1 -1.09 1.09 l -0.001 0.001 a 1.088 1.088 0 0 1 -1.091 -1.09 v -0.001 a 1.088 1.088 0 0 1 1.09 -1.09 V 0.923 z" style="stroke: none; stroke-width: 1; stroke-dasharray: none; stroke-linecap: butt; stroke-linejoin: miter; stroke-miterlimit: 10; fill: #add8e6; fill-rule: evenodd; opacity: 1;" transform=" matrix(18.023057246310064 0 0 18.023057246310064 0 0) " stroke-linecap="round" />
  <path d="M 7.308 3.879 l 0.165 0.138 l 0.165 0.139 l -0.138 0.202 l -0.052 0.075 c 0.11 0.13 0.196 0.28 0.254 0.442 l 0.057 -0.003 l 0.245 -0.015 l 0.038 0.212 l 0.037 0.212 l -0.236 0.066 l -0.059 0.016 c -0.001 0.185 -0.037 0.361 -0.102 0.523 l 0.03 0.021 l 0.197 0.147 l -0.108 0.186 l -0.108 0.187 l -0.223 -0.102 l -0.048 -0.021 A 1.432 1.432 0 0 1 7 6.629 l 0.01 0.041 l 0.057 0.239 l -0.202 0.074 l -0.203 0.073 l -0.105 -0.22 l -0.03 -0.065 a 1.443 1.443 0 0 1 -0.514 -0.032 l -0.031 0.064 l -0.11 0.22 l -0.202 -0.074 l -0.203 -0.074 l 0.061 -0.237 l 0.027 -0.104 a 1.436 1.436 0 0 1 -0.346 -0.334 l -0.1 0.044 l -0.225 0.097 l -0.108 -0.186 l -0.108 -0.187 l 0.2 -0.142 l 0.116 -0.083 a 1.427 1.427 0 0 1 -0.052 -0.45 l -0.132 -0.039 l -0.236 -0.07 l 0.037 -0.212 l 0.038 -0.212 l 0.244 0.019 l 0.163 0.013 c 0.058 -0.137 0.137 -0.262 0.233 -0.373 l -0.08 -0.122 l -0.136 -0.205 l 0.165 -0.138 l 0.165 -0.139 l 0.175 0.172 l 0.112 0.11 c 0.131 -0.07 0.274 -0.121 0.425 -0.148 l 0.014 -0.128 l 0.028 -0.244 h 0.431 l 0.024 0.244 l 0.012 0.128 c 0.16 0.03 0.312 0.086 0.449 0.164 l 0.068 -0.065 l 0.178 -0.17 z m -0.951 0.579 a 0.896 0.896 0 1 1 0 1.792 a 0.896 0.896 0 0 1 0 -1.792 z" style="stroke: none; stroke-width: 1; stroke-dasharray: none; stroke-linecap: butt; stroke-linejoin: miter; stroke-miterlimit: 10; fill: rgb(0,0,0); fill-rule: evenodd; opacity: 1;" transform=" matrix(18.023057246310064 0 0 18.023057246310064 0 0) " stroke-linecap="round" />
  <path d="M 7.428 4.071 l -0.117 -0.098 l -0.133 0.126 l -0.068 0.064 l -0.038 0.036 l -0.045 -0.026 a 1.347 1.347 0 0 0 -0.425 -0.155 l -0.053 -0.01 l -0.005 -0.052 l -0.013 -0.128 l -0.014 -0.147 l -0.003 -0.034 h -0.305 l -0.021 0.182 l -0.015 0.128 l -0.005 0.051 l -0.052 0.01 a 1.345 1.345 0 0 0 -0.402 0.14 l -0.046 0.026 l -0.038 -0.037 l -0.112 -0.11 l -0.113 -0.111 l -0.016 -0.016 l -0.117 0.098 l -0.117 0.098 l 0.101 0.153 l 0.08 0.122 l 0.03 0.044 l -0.035 0.04 a 1.36 1.36 0 0 0 -0.222 0.354 l -0.02 0.046 l -0.05 -0.004 l -0.162 -0.012 l -0.168 -0.013 l -0.013 -0.001 l -0.026 0.15 l -0.027 0.15 l 0.175 0.052 l 0.133 0.04 l 0.052 0.015 l -0.002 0.054 A 1.529 1.529 0 0 0 5 5.354 a 1.362 1.362 0 0 0 0.05 0.369 v 0.001 l 0.013 0.047 l -0.04 0.029 l -0.116 0.083 l -0.121 0.086 l -0.027 0.02 l 0.076 0.131 l 0.077 0.133 l 0.168 -0.073 l 0.1 -0.044 l 0.05 -0.022 l 0.034 0.045 a 1.366 1.366 0 0 0 0.329 0.317 l 0.041 0.027 l -0.012 0.049 l -0.027 0.103 l -0.038 0.15 l -0.007 0.026 l 0.142 0.052 l 0.144 0.052 l 0.082 -0.163 l 0.032 -0.064 l 0.025 -0.05 l 0.054 0.013 a 1.356 1.356 0 0 0 0.327 0.04 c 0.04 0 0.078 -0.001 0.115 -0.005 l 0.022 -0.001 l 0.022 -0.003 h 0.002 l 0.05 -0.006 l 0.022 0.045 l 0.03 0.064 l 0.067 0.141 l 0.01 0.023 l 0.144 -0.052 l 0.144 -0.052 l -0.043 -0.179 l -0.01 -0.04 l -0.013 -0.055 l 0.05 -0.025 a 1.36 1.36 0 0 0 0.402 -0.309 l 0.034 -0.038 l 0.047 0.021 l 0.048 0.022 l 0.15 0.068 l 0.015 0.007 l 0.076 -0.132 l 0.077 -0.132 l -0.147 -0.11 l -0.03 -0.021 l -0.043 -0.032 l 0.02 -0.05 a 1.357 1.357 0 0 0 0.097 -0.479 v -0.019 l 0.001 -0.052 l 0.05 -0.014 l 0.06 -0.016 l 0.166 -0.047 L 8 5.231 l -0.026 -0.15 l -0.027 -0.15 l -0.183 0.01 l -0.057 0.004 l -0.052 0.003 l -0.018 -0.05 a 1.353 1.353 0 0 0 -0.242 -0.42 l -0.034 -0.04 l 0.03 -0.044 l 0.052 -0.075 l 0.09 -0.133 l 0.013 -0.017 l -0.117 -0.098 z m -1.071 0.317 a 0.963 0.963 0 0 1 0.966 0.966 a 0.963 0.963 0 0 1 -0.966 0.966 a 0.963 0.963 0 0 1 -0.966 -0.966 a 0.963 0.963 0 0 1 0.966 -0.966 z" style="stroke: none; stroke-width: 1; stroke-dasharray: none; stroke-linecap: butt; stroke-linejoin: miter; stroke-miterlimit: 10; fill: #7b68ee; fill-rule: evenodd; opacity: 1;" transform=" matrix(18.023057246310064 0 0 18.023057246310064 0 0) " stroke-linecap="round" />
</g>
  <g transform="translate(419.26 42.06) scale(1.2 1.2)">
   <text font-family="Chunky" font-size="40" font-weight="normal" style="stroke: none; stroke-width: 1; stroke-dasharray: none; stroke-linecap: butt; stroke-linejoin: miter; stroke-miterlimit: 10; fill: #bd8700; fill-rule: nonzero; opacity: 1;" ><tspan x="-81.13" y="8.98" style="stroke: none; stroke-width: 0; stroke-dasharray: none; stroke-linecap: butt; stroke-linejoin: miter; stroke-miterlimit: 4; fill: #bd8700; fill-rule: ; opacity: 1;">S</tspan><tspan x="-58.89" y="8.98" style="stroke: none; stroke-width: 0; stroke-dasharray: none; stroke-linecap: butt; stroke-linejoin: miter; stroke-miterlimit: 4; fill: #bd8700; fill-rule: ; opacity: 1;">A</tspan><tspan x="-30" y="8.98" style="stroke: none; stroke-width: 0; stroke-dasharray: none; stroke-linecap: butt; stroke-linejoin: miter; stroke-miterlimit: 4; fill: #bd8700; fill-rule: ; opacity: 1;">P</tspan><tspan x="-7.75" y="8.98" style="stroke: none; stroke-width: 0; stroke-dasharray: none; stroke-linecap: butt; stroke-linejoin: miter; stroke-miterlimit: 4; fill: #bd8700; fill-rule: ; opacity: 1;">I</tspan><tspan x="5.57" y="8.98" style="stroke: none; stroke-width: 0; stroke-dasharray: none; stroke-linecap: butt; stroke-linejoin: miter; stroke-miterlimit: 4; fill: #bd8700; fill-rule: ; opacity: 1;">E</tspan><tspan x="30" y="8.98" style="stroke: none; stroke-width: 0; stroke-dasharray: none; stroke-linecap: butt; stroke-linejoin: miter; stroke-miterlimit: 4; fill: #bd8700; fill-rule: ; opacity: 1;">N</tspan><tspan x="58.89" y="8.98" style="stroke: none; stroke-width: 0; stroke-dasharray: none; stroke-linecap: butt; stroke-linejoin: miter; stroke-miterlimit: 4; fill: #bd8700; fill-rule: ; opacity: 1;">S</tspan></text>
 </g>
</svg>